<mxfile host="app.diagrams.net" agent="Mozilla/5.0 (Windows NT 10.0; Win64; x64) AppleWebKit/537.36 (KHTML, like Gecko) Chrome/131.0.0.0 Safari/537.36" version="24.8.6">
  <diagram name="Page-1" id="i24ftPTYgaIPFhyP6cyP">
    <mxGraphModel dx="808" dy="481" grid="1" gridSize="10" guides="1" tooltips="1" connect="1" arrows="1" fold="1" page="1" pageScale="1" pageWidth="850" pageHeight="1100" math="0" shadow="0">
      <root>
        <mxCell id="0" />
        <mxCell id="1" parent="0" />
        <mxCell id="WlSvWnOoC3Hq79EwGUf7-4" value="" style="edgeStyle=orthogonalEdgeStyle;rounded=0;orthogonalLoop=1;jettySize=auto;html=1;" edge="1" parent="1" source="WlSvWnOoC3Hq79EwGUf7-1" target="WlSvWnOoC3Hq79EwGUf7-3">
          <mxGeometry relative="1" as="geometry" />
        </mxCell>
        <mxCell id="WlSvWnOoC3Hq79EwGUf7-1" value="Start" style="ellipse;whiteSpace=wrap;html=1;" vertex="1" parent="1">
          <mxGeometry x="280" y="10" width="120" height="80" as="geometry" />
        </mxCell>
        <mxCell id="WlSvWnOoC3Hq79EwGUf7-6" value="" style="edgeStyle=orthogonalEdgeStyle;rounded=0;orthogonalLoop=1;jettySize=auto;html=1;" edge="1" parent="1" source="WlSvWnOoC3Hq79EwGUf7-3" target="WlSvWnOoC3Hq79EwGUf7-5">
          <mxGeometry relative="1" as="geometry" />
        </mxCell>
        <mxCell id="WlSvWnOoC3Hq79EwGUf7-3" value="Nhập 3 số a, b, c" style="shape=parallelogram;perimeter=parallelogramPerimeter;whiteSpace=wrap;html=1;fixedSize=1;" vertex="1" parent="1">
          <mxGeometry x="280" y="180" width="120" height="60" as="geometry" />
        </mxCell>
        <mxCell id="WlSvWnOoC3Hq79EwGUf7-8" value="" style="edgeStyle=orthogonalEdgeStyle;rounded=0;orthogonalLoop=1;jettySize=auto;html=1;" edge="1" parent="1" source="WlSvWnOoC3Hq79EwGUf7-5" target="WlSvWnOoC3Hq79EwGUf7-7">
          <mxGeometry relative="1" as="geometry" />
        </mxCell>
        <mxCell id="WlSvWnOoC3Hq79EwGUf7-10" value="" style="edgeStyle=orthogonalEdgeStyle;rounded=0;orthogonalLoop=1;jettySize=auto;html=1;" edge="1" parent="1" source="WlSvWnOoC3Hq79EwGUf7-5" target="WlSvWnOoC3Hq79EwGUf7-9">
          <mxGeometry relative="1" as="geometry" />
        </mxCell>
        <mxCell id="WlSvWnOoC3Hq79EwGUf7-5" value="a != 0" style="rhombus;whiteSpace=wrap;html=1;" vertex="1" parent="1">
          <mxGeometry x="300" y="310" width="80" height="80" as="geometry" />
        </mxCell>
        <mxCell id="WlSvWnOoC3Hq79EwGUf7-14" value="" style="edgeStyle=orthogonalEdgeStyle;rounded=0;orthogonalLoop=1;jettySize=auto;html=1;" edge="1" parent="1" source="WlSvWnOoC3Hq79EwGUf7-7" target="WlSvWnOoC3Hq79EwGUf7-13">
          <mxGeometry relative="1" as="geometry" />
        </mxCell>
        <mxCell id="WlSvWnOoC3Hq79EwGUf7-28" value="" style="edgeStyle=orthogonalEdgeStyle;rounded=0;orthogonalLoop=1;jettySize=auto;html=1;" edge="1" parent="1" source="WlSvWnOoC3Hq79EwGUf7-7" target="WlSvWnOoC3Hq79EwGUf7-27">
          <mxGeometry relative="1" as="geometry" />
        </mxCell>
        <mxCell id="WlSvWnOoC3Hq79EwGUf7-7" value="b != 0" style="rhombus;whiteSpace=wrap;html=1;" vertex="1" parent="1">
          <mxGeometry x="460" y="310" width="80" height="80" as="geometry" />
        </mxCell>
        <mxCell id="WlSvWnOoC3Hq79EwGUf7-31" value="" style="edgeStyle=orthogonalEdgeStyle;rounded=0;orthogonalLoop=1;jettySize=auto;html=1;" edge="1" parent="1" source="WlSvWnOoC3Hq79EwGUf7-9" target="WlSvWnOoC3Hq79EwGUf7-30">
          <mxGeometry relative="1" as="geometry" />
        </mxCell>
        <mxCell id="WlSvWnOoC3Hq79EwGUf7-9" value="delta = b^2 - 4ac" style="whiteSpace=wrap;html=1;" vertex="1" parent="1">
          <mxGeometry x="280" y="480" width="120" height="60" as="geometry" />
        </mxCell>
        <mxCell id="WlSvWnOoC3Hq79EwGUf7-11" value="Đ" style="text;html=1;align=center;verticalAlign=middle;resizable=0;points=[];autosize=1;strokeColor=none;fillColor=none;" vertex="1" parent="1">
          <mxGeometry x="310" y="418" width="30" height="30" as="geometry" />
        </mxCell>
        <mxCell id="WlSvWnOoC3Hq79EwGUf7-12" value="S" style="text;html=1;align=center;verticalAlign=middle;resizable=0;points=[];autosize=1;strokeColor=none;fillColor=none;" vertex="1" parent="1">
          <mxGeometry x="400" y="318" width="30" height="30" as="geometry" />
        </mxCell>
        <mxCell id="WlSvWnOoC3Hq79EwGUf7-19" value="" style="edgeStyle=orthogonalEdgeStyle;rounded=0;orthogonalLoop=1;jettySize=auto;html=1;" edge="1" parent="1" source="WlSvWnOoC3Hq79EwGUf7-13" target="WlSvWnOoC3Hq79EwGUf7-18">
          <mxGeometry relative="1" as="geometry" />
        </mxCell>
        <mxCell id="WlSvWnOoC3Hq79EwGUf7-23" value="" style="edgeStyle=orthogonalEdgeStyle;rounded=0;orthogonalLoop=1;jettySize=auto;html=1;" edge="1" parent="1" source="WlSvWnOoC3Hq79EwGUf7-13" target="WlSvWnOoC3Hq79EwGUf7-22">
          <mxGeometry relative="1" as="geometry" />
        </mxCell>
        <mxCell id="WlSvWnOoC3Hq79EwGUf7-13" value="c != 0" style="rhombus;whiteSpace=wrap;html=1;" vertex="1" parent="1">
          <mxGeometry x="620" y="310" width="80" height="80" as="geometry" />
        </mxCell>
        <mxCell id="WlSvWnOoC3Hq79EwGUf7-15" value="S" style="text;html=1;align=center;verticalAlign=middle;resizable=0;points=[];autosize=1;strokeColor=none;fillColor=none;" vertex="1" parent="1">
          <mxGeometry x="570" y="318" width="30" height="30" as="geometry" />
        </mxCell>
        <mxCell id="WlSvWnOoC3Hq79EwGUf7-18" value="pt vô Nghiệm" style="shape=parallelogram;perimeter=parallelogramPerimeter;whiteSpace=wrap;html=1;fixedSize=1;" vertex="1" parent="1">
          <mxGeometry x="600" y="480" width="120" height="60" as="geometry" />
        </mxCell>
        <mxCell id="WlSvWnOoC3Hq79EwGUf7-21" value="Đ" style="text;html=1;align=center;verticalAlign=middle;resizable=0;points=[];autosize=1;strokeColor=none;fillColor=none;" vertex="1" parent="1">
          <mxGeometry x="655" y="408" width="30" height="30" as="geometry" />
        </mxCell>
        <mxCell id="WlSvWnOoC3Hq79EwGUf7-22" value="pt vô số Nghiệm" style="shape=parallelogram;perimeter=parallelogramPerimeter;whiteSpace=wrap;html=1;fixedSize=1;" vertex="1" parent="1">
          <mxGeometry x="760" y="320" width="120" height="60" as="geometry" />
        </mxCell>
        <mxCell id="WlSvWnOoC3Hq79EwGUf7-24" value="S" style="text;html=1;align=center;verticalAlign=middle;resizable=0;points=[];autosize=1;strokeColor=none;fillColor=none;" vertex="1" parent="1">
          <mxGeometry x="720" y="320" width="30" height="30" as="geometry" />
        </mxCell>
        <mxCell id="WlSvWnOoC3Hq79EwGUf7-27" value="pt có Nghiệm -c/b" style="shape=parallelogram;perimeter=parallelogramPerimeter;whiteSpace=wrap;html=1;fixedSize=1;" vertex="1" parent="1">
          <mxGeometry x="440" y="480" width="120" height="60" as="geometry" />
        </mxCell>
        <mxCell id="WlSvWnOoC3Hq79EwGUf7-29" value="Đ" style="text;html=1;align=center;verticalAlign=middle;resizable=0;points=[];autosize=1;strokeColor=none;fillColor=none;" vertex="1" parent="1">
          <mxGeometry x="495" y="408" width="30" height="30" as="geometry" />
        </mxCell>
        <mxCell id="WlSvWnOoC3Hq79EwGUf7-33" value="" style="edgeStyle=orthogonalEdgeStyle;rounded=0;orthogonalLoop=1;jettySize=auto;html=1;" edge="1" parent="1" source="WlSvWnOoC3Hq79EwGUf7-30" target="WlSvWnOoC3Hq79EwGUf7-32">
          <mxGeometry relative="1" as="geometry" />
        </mxCell>
        <mxCell id="WlSvWnOoC3Hq79EwGUf7-35" value="" style="edgeStyle=orthogonalEdgeStyle;rounded=0;orthogonalLoop=1;jettySize=auto;html=1;" edge="1" parent="1" source="WlSvWnOoC3Hq79EwGUf7-30" target="WlSvWnOoC3Hq79EwGUf7-34">
          <mxGeometry relative="1" as="geometry" />
        </mxCell>
        <mxCell id="WlSvWnOoC3Hq79EwGUf7-30" value="delta &amp;lt; 0" style="rhombus;whiteSpace=wrap;html=1;" vertex="1" parent="1">
          <mxGeometry x="300" y="610" width="80" height="80" as="geometry" />
        </mxCell>
        <mxCell id="WlSvWnOoC3Hq79EwGUf7-37" value="" style="edgeStyle=orthogonalEdgeStyle;rounded=0;orthogonalLoop=1;jettySize=auto;html=1;" edge="1" parent="1" source="WlSvWnOoC3Hq79EwGUf7-32" target="WlSvWnOoC3Hq79EwGUf7-36">
          <mxGeometry relative="1" as="geometry" />
        </mxCell>
        <mxCell id="WlSvWnOoC3Hq79EwGUf7-39" value="" style="edgeStyle=orthogonalEdgeStyle;rounded=0;orthogonalLoop=1;jettySize=auto;html=1;" edge="1" parent="1" source="WlSvWnOoC3Hq79EwGUf7-32" target="WlSvWnOoC3Hq79EwGUf7-38">
          <mxGeometry relative="1" as="geometry" />
        </mxCell>
        <mxCell id="WlSvWnOoC3Hq79EwGUf7-32" value="delta = 0" style="rhombus;whiteSpace=wrap;html=1;" vertex="1" parent="1">
          <mxGeometry x="300" y="770" width="80" height="80" as="geometry" />
        </mxCell>
        <mxCell id="WlSvWnOoC3Hq79EwGUf7-34" value="pt vô Nghiệm" style="shape=parallelogram;perimeter=parallelogramPerimeter;whiteSpace=wrap;html=1;fixedSize=1;" vertex="1" parent="1">
          <mxGeometry x="120" y="620" width="120" height="60" as="geometry" />
        </mxCell>
        <mxCell id="WlSvWnOoC3Hq79EwGUf7-36" value="pt có nghiệm kép&lt;div&gt;x = -b/2a&lt;/div&gt;" style="shape=parallelogram;perimeter=parallelogramPerimeter;whiteSpace=wrap;html=1;fixedSize=1;" vertex="1" parent="1">
          <mxGeometry x="120" y="780" width="120" height="60" as="geometry" />
        </mxCell>
        <mxCell id="WlSvWnOoC3Hq79EwGUf7-41" value="" style="edgeStyle=orthogonalEdgeStyle;rounded=0;orthogonalLoop=1;jettySize=auto;html=1;" edge="1" parent="1" source="WlSvWnOoC3Hq79EwGUf7-38" target="WlSvWnOoC3Hq79EwGUf7-40">
          <mxGeometry relative="1" as="geometry" />
        </mxCell>
        <mxCell id="WlSvWnOoC3Hq79EwGUf7-38" value="delta &amp;gt; 0" style="rhombus;whiteSpace=wrap;html=1;" vertex="1" parent="1">
          <mxGeometry x="300" y="930" width="80" height="80" as="geometry" />
        </mxCell>
        <mxCell id="WlSvWnOoC3Hq79EwGUf7-40" value="pt có 2 nghiệm pb&lt;div&gt;x1 = (-b + sqrt(delta)/2a&lt;/div&gt;&lt;div&gt;x1 = (-b - sqrt(delta)/2a&lt;/div&gt;" style="shape=parallelogram;perimeter=parallelogramPerimeter;whiteSpace=wrap;html=1;fixedSize=1;" vertex="1" parent="1">
          <mxGeometry x="80" y="940" width="160" height="60" as="geometry" />
        </mxCell>
        <mxCell id="WlSvWnOoC3Hq79EwGUf7-42" value="" style="endArrow=classic;html=1;rounded=0;exitX=0;exitY=0.5;exitDx=0;exitDy=0;" edge="1" parent="1" source="WlSvWnOoC3Hq79EwGUf7-34">
          <mxGeometry width="50" height="50" relative="1" as="geometry">
            <mxPoint x="450" y="860" as="sourcePoint" />
            <mxPoint x="630" y="1060" as="targetPoint" />
            <Array as="points">
              <mxPoint x="40" y="650" />
              <mxPoint x="40" y="1070" />
            </Array>
          </mxGeometry>
        </mxCell>
        <mxCell id="WlSvWnOoC3Hq79EwGUf7-43" value="" style="endArrow=classic;html=1;rounded=0;exitX=0;exitY=0.5;exitDx=0;exitDy=0;" edge="1" parent="1" source="WlSvWnOoC3Hq79EwGUf7-36">
          <mxGeometry width="50" height="50" relative="1" as="geometry">
            <mxPoint x="450" y="860" as="sourcePoint" />
            <mxPoint x="40" y="810" as="targetPoint" />
          </mxGeometry>
        </mxCell>
        <mxCell id="WlSvWnOoC3Hq79EwGUf7-44" value="" style="endArrow=classic;html=1;rounded=0;exitX=0;exitY=0.5;exitDx=0;exitDy=0;" edge="1" parent="1" source="WlSvWnOoC3Hq79EwGUf7-40">
          <mxGeometry width="50" height="50" relative="1" as="geometry">
            <mxPoint x="450" y="860" as="sourcePoint" />
            <mxPoint x="40" y="970" as="targetPoint" />
          </mxGeometry>
        </mxCell>
        <mxCell id="WlSvWnOoC3Hq79EwGUf7-45" value="" style="endArrow=classic;html=1;rounded=0;" edge="1" parent="1">
          <mxGeometry width="50" height="50" relative="1" as="geometry">
            <mxPoint x="500" y="540" as="sourcePoint" />
            <mxPoint x="620" y="1010" as="targetPoint" />
            <Array as="points">
              <mxPoint x="500" y="1010" />
            </Array>
          </mxGeometry>
        </mxCell>
        <mxCell id="WlSvWnOoC3Hq79EwGUf7-46" value="" style="endArrow=classic;html=1;rounded=0;exitX=0.412;exitY=1.008;exitDx=0;exitDy=0;exitPerimeter=0;" edge="1" parent="1" source="WlSvWnOoC3Hq79EwGUf7-18">
          <mxGeometry width="50" height="50" relative="1" as="geometry">
            <mxPoint x="450" y="600" as="sourcePoint" />
            <mxPoint x="650" y="980" as="targetPoint" />
          </mxGeometry>
        </mxCell>
        <mxCell id="WlSvWnOoC3Hq79EwGUf7-47" value="" style="endArrow=classic;html=1;rounded=0;exitX=0.5;exitY=1;exitDx=0;exitDy=0;entryX=0.977;entryY=0.233;entryDx=0;entryDy=0;entryPerimeter=0;" edge="1" parent="1" source="WlSvWnOoC3Hq79EwGUf7-22" target="WlSvWnOoC3Hq79EwGUf7-48">
          <mxGeometry width="50" height="50" relative="1" as="geometry">
            <mxPoint x="450" y="600" as="sourcePoint" />
            <mxPoint x="820" y="1030" as="targetPoint" />
            <Array as="points">
              <mxPoint x="820" y="1010" />
            </Array>
          </mxGeometry>
        </mxCell>
        <mxCell id="WlSvWnOoC3Hq79EwGUf7-48" value="End" style="ellipse;whiteSpace=wrap;html=1;aspect=fixed;" vertex="1" parent="1">
          <mxGeometry x="620" y="990" width="80" height="80" as="geometry" />
        </mxCell>
      </root>
    </mxGraphModel>
  </diagram>
</mxfile>
